# xmcd
#
# Track frame offsets:
#	150
#	12306
#	32187
#	54018
#	69624
#	88830
#	104661
#	124992
#	135198
#	156729
#	172410
#	187116
# Disc length: 2738 seconds
# Revision: 2
# Processed by: cddbd v1.5PL3 Copyright (c) Steve Scherf et al.
#
# Submitted via: libkcddb 0.10
#
DISCID=b10ab00c
DTITLE=The Don Campbell Band - I Own The Road
DYEAR=1900
DGENRE=Unknown
TTITLE0=I Own The Road
TTITLE1=The Heart Of A Tennessee Town
TTITLE2=Honey I'm Bad
TTITLE3=Home Is Where My Heart Is
TTITLE4=The Girl Next Door
TTITLE5=Taking The Blame
TTITLE6=Tequila Fever
TTITLE7=Rosalina
TTITLE8=Cowboy Kind Of Girl
TTITLE9=You Can't Hide Love
TTITLE10=Love Is Blind
TTITLE11=Pride
EXTD=
EXTT0=
EXTT1=
EXTT2=
EXTT3=
EXTT4=
EXTT5=
EXTT6=
EXTT7=
EXTT8=
EXTT9=
EXTT10=
EXTT11=
PLAYORDER=
